<mxfile host="65bd71144e">
    <diagram id="BsBV6leVBUCAfMzn52um" name="Page-1">
        <mxGraphModel dx="640" dy="507" grid="1" gridSize="10" guides="1" tooltips="1" connect="1" arrows="1" fold="1" page="1" pageScale="1" pageWidth="827" pageHeight="1169" math="0" shadow="0">
            <root>
                <mxCell id="0"/>
                <mxCell id="1" parent="0"/>
                <mxCell id="210" style="edgeStyle=none;html=1;entryX=0.5;entryY=0;entryDx=0;entryDy=0;" parent="1" source="2" edge="1">
                    <mxGeometry relative="1" as="geometry">
                        <mxPoint x="390" y="130" as="targetPoint"/>
                    </mxGeometry>
                </mxCell>
                <mxCell id="2" value="start" style="strokeWidth=2;html=1;shape=mxgraph.flowchart.terminator;whiteSpace=wrap;" parent="1" vertex="1">
                    <mxGeometry x="340" y="50" width="100" height="60" as="geometry"/>
                </mxCell>
                <mxCell id="223" style="edgeStyle=none;html=1;entryX=0.5;entryY=0;entryDx=0;entryDy=0;entryPerimeter=0;" parent="1" edge="1">
                    <mxGeometry relative="1" as="geometry">
                        <mxPoint x="390" y="210" as="targetPoint"/>
                        <mxPoint x="390" y="190" as="sourcePoint"/>
                    </mxGeometry>
                </mxCell>
                <mxCell id="242" value="converter" style="text;html=1;align=center;verticalAlign=middle;resizable=0;points=[];autosize=1;strokeColor=none;fillColor=none;" parent="1" vertex="1">
                    <mxGeometry x="355" y="20" width="70" height="20" as="geometry"/>
                </mxCell>
                <mxCell id="265" style="edgeStyle=none;html=1;" edge="1" parent="1" target="256">
                    <mxGeometry relative="1" as="geometry">
                        <mxPoint x="390" y="270" as="sourcePoint"/>
                    </mxGeometry>
                </mxCell>
                <mxCell id="269" style="edgeStyle=none;html=1;entryX=0.5;entryY=0;entryDx=0;entryDy=0;" edge="1" parent="1" source="256" target="268">
                    <mxGeometry relative="1" as="geometry"/>
                </mxCell>
                <mxCell id="256" value="decimal[0] = decimal[0] * pow(10, decimal_places) + 0.5" style="rounded=1;whiteSpace=wrap;html=1;absoluteArcSize=1;arcSize=14;strokeWidth=2;" parent="1" vertex="1">
                    <mxGeometry x="335" y="300" width="110" height="90" as="geometry"/>
                </mxCell>
                <mxCell id="260" value="stop" style="strokeWidth=2;html=1;shape=mxgraph.flowchart.terminator;whiteSpace=wrap;" parent="1" vertex="1">
                    <mxGeometry x="340" y="600" width="100" height="60" as="geometry"/>
                </mxCell>
                <mxCell id="266" value="&lt;span&gt;get user input decimal&lt;/span&gt;" style="shape=parallelogram;html=1;strokeWidth=2;perimeter=parallelogramPerimeter;whiteSpace=wrap;rounded=1;arcSize=12;size=0.23;" vertex="1" parent="1">
                    <mxGeometry x="340" y="130" width="100" height="60" as="geometry"/>
                </mxCell>
                <mxCell id="267" value="&lt;span&gt;get user input decimal place&lt;/span&gt;" style="shape=parallelogram;html=1;strokeWidth=2;perimeter=parallelogramPerimeter;whiteSpace=wrap;rounded=1;arcSize=12;size=0.23;" vertex="1" parent="1">
                    <mxGeometry x="340" y="210" width="100" height="60" as="geometry"/>
                </mxCell>
                <mxCell id="271" style="edgeStyle=none;html=1;" edge="1" parent="1" source="268" target="270">
                    <mxGeometry relative="1" as="geometry"/>
                </mxCell>
                <mxCell id="268" value="decimal[0] = int(decimal[0])" style="rounded=1;whiteSpace=wrap;html=1;absoluteArcSize=1;arcSize=14;strokeWidth=2;" vertex="1" parent="1">
                    <mxGeometry x="336.25" y="420" width="107.5" height="60" as="geometry"/>
                </mxCell>
                <mxCell id="272" style="edgeStyle=none;html=1;" edge="1" parent="1" source="270" target="260">
                    <mxGeometry relative="1" as="geometry"/>
                </mxCell>
                <mxCell id="270" value="decimal[0] = decimal[0] / pow(10, decimal_places)" style="rounded=1;whiteSpace=wrap;html=1;absoluteArcSize=1;arcSize=14;strokeWidth=2;" vertex="1" parent="1">
                    <mxGeometry x="336.25" y="510" width="107.5" height="60" as="geometry"/>
                </mxCell>
            </root>
        </mxGraphModel>
    </diagram>
</mxfile>